<?xml version="1.0" encoding="UTF-8" standalone="no"?>
<!DOCTYPE svg PUBLIC "-//W3C//DTD SVG 20010904//EN"
              "http://www.w3.org/TR/2001/REC-SVG-20010904/DTD/svg10.dtd">

<svg xmlns="http://www.w3.org/2000/svg"
     width="496.428mm" height="124.372mm"
     viewBox="0 0 1876 470"
     style="fill:#c69a47">
  <path id="Selection"
        stroke-width="1"
        d="M 1487.00,211.00
           C 1484.17,189.55 1485.11,166.08 1490.37,145.00
             1496.93,118.79 1507.88,96.24 1524.66,75.00
             1584.43,-0.62 1694.58,-13.43 1772.00,42.29
             1791.14,56.07 1807.37,73.80 1819.55,94.00
             1833.46,117.06 1844.96,149.87 1845.00,177.00
             1845.00,177.00 1845.00,200.00 1845.00,200.00
             1845.00,200.00 1844.00,213.00 1844.00,213.00
             1838.08,211.89 1817.01,201.42 1811.00,198.00
             1810.66,205.31 1809.16,213.84 1807.58,221.00
             1807.02,223.52 1805.04,229.36 1806.19,231.59
             1807.21,233.53 1811.04,234.85 1813.00,235.78
             1813.00,235.78 1828.00,243.25 1828.00,243.25
             1832.38,245.47 1835.44,246.46 1833.89,252.00
             1828.97,269.61 1812.19,294.33 1800.15,308.00
             1752.89,361.68 1676.67,381.16 1609.00,359.26
             1583.39,350.96 1559.63,336.23 1540.00,317.91
             1527.14,305.91 1513.36,286.70 1505.26,271.00
             1502.10,264.87 1499.30,258.48 1496.95,252.00
             1496.09,249.60 1494.44,246.02 1496.01,243.63
             1497.18,241.86 1501.05,240.28 1503.00,239.42
             1503.00,239.42 1517.00,232.75 1517.00,232.75
             1519.20,231.64 1522.73,230.12 1523.81,227.79
             1524.97,225.29 1523.01,219.79 1522.45,217.00
             1521.16,210.60 1520.02,201.50 1520.00,195.00
             1520.00,195.00 1487.00,211.00 1487.00,211.00 Z
           M 1810.00,196.00
           C 1810.00,196.00 1810.00,182.00 1810.00,182.00
             1809.97,162.69 1803.35,140.19 1794.75,123.00
             1785.75,104.99 1775.77,92.78 1761.00,79.09
             1749.02,67.98 1731.35,57.94 1716.00,52.32
             1658.19,31.14 1595.75,47.48 1555.29,94.00
             1535.60,116.64 1521.05,151.76 1521.00,182.00
             1521.00,182.00 1521.00,193.00 1521.00,193.00
             1521.00,193.00 1559.00,175.26 1559.00,175.26
             1559.00,175.26 1590.00,160.74 1590.00,160.74
             1590.00,160.74 1628.00,142.58 1628.00,142.58
             1628.00,142.58 1652.00,131.14 1652.00,131.14
             1654.58,129.99 1659.47,127.22 1662.00,127.01
             1665.87,126.69 1673.41,130.96 1677.00,132.75
             1677.00,132.75 1706.00,146.75 1706.00,146.75
             1706.00,146.75 1762.00,173.26 1762.00,173.26
             1762.00,173.26 1810.00,196.00 1810.00,196.00 Z
           M 1091.00,135.52
           C 1100.58,134.00 1110.91,134.84 1119.00,140.63
             1130.16,148.62 1133.15,157.97 1133.00,171.00
             1132.80,187.18 1121.51,199.04 1106.00,202.33
             1071.40,209.68 1051.01,166.21 1076.04,143.18
             1080.59,138.99 1085.13,137.09 1091.00,135.52 Z
           M 284.00,342.00
           C 282.00,353.15 283.03,390.23 283.00,404.00
             283.00,406.27 283.22,409.66 281.98,411.61
             280.47,413.98 276.50,415.33 274.00,416.42
             274.00,416.42 258.00,423.80 258.00,423.80
             240.72,430.77 218.70,436.97 200.00,437.00
             200.00,437.00 173.00,437.00 173.00,437.00
             161.60,436.98 146.10,434.23 135.00,431.37
             123.10,428.31 109.55,422.83 99.00,416.55
             51.94,388.55 33.24,338.36 30.96,286.00
             30.96,286.00 30.04,277.00 30.04,277.00
             30.04,277.00 31.17,259.00 31.17,259.00
             32.35,246.57 35.85,230.58 40.45,219.00
             45.28,206.82 50.85,196.40 58.89,186.00
             83.11,154.67 127.77,136.06 167.00,136.00
             167.00,136.00 188.00,136.00 188.00,136.00
             188.00,136.00 198.00,136.91 198.00,136.91
             221.32,138.62 238.96,142.69 261.00,150.34
             265.18,151.79 279.91,157.16 281.98,160.39
             283.26,162.39 283.04,166.62 282.99,169.00
             282.99,169.00 282.00,183.00 282.00,183.00
             282.00,183.00 282.00,231.00 282.00,231.00
             279.16,231.00 274.58,231.23 272.00,230.26
             272.00,230.26 247.00,212.34 247.00,212.34
             231.46,202.18 210.86,193.22 192.00,193.00
             168.82,192.73 151.96,194.58 134.17,211.43
             106.04,238.06 105.72,278.91 113.58,314.00
             118.33,335.23 127.34,355.88 146.00,368.48
             174.04,387.42 214.99,382.38 243.00,365.99
             249.26,362.33 255.30,358.28 261.00,353.79
             271.86,345.24 270.36,342.01 284.00,342.00 Z
           M 884.00,151.00
           C 884.00,151.00 955.00,151.00 955.00,151.00
             955.00,151.00 955.00,214.00 955.00,214.00
             955.00,214.00 1021.00,214.00 1021.00,214.00
             1021.00,214.00 1021.00,261.00 1021.00,261.00
             1021.00,261.00 955.00,261.00 955.00,261.00
             955.00,261.00 955.00,353.00 955.00,353.00
             955.03,373.81 961.70,388.89 985.00,389.00
             1001.97,389.08 1006.71,383.01 1021.00,383.00
             1021.00,383.00 1021.00,408.00 1021.00,408.00
             1021.00,408.00 1020.00,431.00 1020.00,431.00
             995.75,435.88 982.82,437.29 958.00,437.00
             958.00,437.00 949.00,436.17 949.00,436.17
             929.84,434.25 911.42,430.65 898.32,415.00
             883.33,397.08 884.00,375.82 884.00,354.00
             884.00,354.00 884.00,261.00 884.00,261.00
             884.00,261.00 855.00,261.00 855.00,261.00
             855.00,261.00 855.00,214.00 855.00,214.00
             855.00,214.00 884.00,214.00 884.00,214.00
             884.00,214.00 884.00,151.00 884.00,151.00 Z
           M 1803.00,233.00
           C 1803.00,233.00 1764.00,213.74 1764.00,213.74
             1764.00,213.74 1705.00,184.75 1705.00,184.75
             1705.00,184.75 1677.00,171.25 1677.00,171.25
             1677.00,171.25 1663.00,165.42 1663.00,165.42
             1663.00,165.42 1650.00,170.74 1650.00,170.74
             1650.00,170.74 1625.00,182.69 1625.00,182.69
             1625.00,182.69 1577.00,205.69 1577.00,205.69
             1577.00,205.69 1554.00,216.69 1554.00,216.69
             1554.00,216.69 1527.00,230.00 1527.00,230.00
             1530.62,240.86 1534.59,251.10 1540.45,261.00
             1559.22,292.72 1593.30,320.59 1630.00,328.00
             1630.00,328.00 1630.00,236.00 1630.00,236.00
             1630.00,236.00 1701.00,236.00 1701.00,236.00
             1701.00,236.00 1701.00,328.00 1701.00,328.00
             1708.69,326.81 1717.81,322.94 1725.00,319.85
             1762.04,303.94 1790.33,270.95 1803.00,233.00 Z
           M 477.00,406.00
           C 470.88,426.97 443.97,436.97 424.00,437.00
             424.00,437.00 413.00,437.00 413.00,437.00
             384.45,436.96 354.34,420.81 336.46,399.00
             318.71,377.35 312.10,349.40 311.04,322.00
             311.04,322.00 312.04,311.00 312.04,311.00
             312.04,311.00 312.04,303.00 312.04,303.00
             314.61,277.42 324.41,252.31 343.09,234.17
             358.96,218.77 380.01,208.15 402.00,205.29
             402.00,205.29 415.00,204.32 415.00,204.32
             415.00,204.32 424.00,204.96 424.00,204.96
             448.03,206.04 467.08,215.02 480.00,236.00
             480.00,236.00 480.00,209.00 480.00,209.00
             480.00,209.00 551.00,209.00 551.00,209.00
             551.00,209.00 551.00,434.00 551.00,434.00
             551.00,434.00 478.00,434.00 478.00,434.00
             478.00,434.00 477.00,406.00 477.00,406.00 Z
           M 1333.00,406.00
           C 1328.30,425.70 1300.46,436.78 1282.00,437.00
             1282.00,437.00 1269.00,437.00 1269.00,437.00
             1241.62,436.96 1213.17,422.15 1195.17,402.00
             1179.10,384.00 1168.04,355.22 1168.00,331.00
             1168.00,331.00 1168.00,308.00 1168.00,308.00
             1168.26,285.77 1176.98,261.41 1190.67,244.00
             1203.81,227.29 1224.25,213.11 1245.00,207.89
             1253.54,205.75 1262.26,204.98 1271.00,204.32
             1274.31,204.08 1275.85,204.70 1279.00,204.91
             1291.23,205.75 1300.88,206.98 1312.00,212.89
             1323.95,219.24 1327.90,224.86 1336.00,235.00
             1336.00,235.00 1336.00,209.00 1336.00,209.00
             1336.00,209.00 1407.00,209.00 1407.00,209.00
             1407.00,209.00 1407.00,434.00 1407.00,434.00
             1407.00,434.00 1334.00,434.00 1334.00,434.00
             1334.00,434.00 1333.00,406.00 1333.00,406.00 Z
           M 671.00,241.00
           C 679.89,233.48 698.12,221.66 709.00,217.69
             739.86,206.46 780.49,210.96 802.70,237.00
             808.14,243.38 811.56,250.14 814.31,258.00
             821.75,279.35 820.00,304.58 820.00,327.00
             820.00,327.00 820.00,437.00 820.00,437.00
             820.00,437.00 748.00,437.00 748.00,437.00
             748.00,437.00 748.00,336.00 748.00,336.00
             748.00,321.48 748.88,296.77 742.18,284.00
             731.71,264.05 705.61,266.33 688.00,273.87
             683.52,275.79 672.38,280.64 670.60,285.09
             669.88,286.88 670.00,290.03 670.00,292.00
             670.00,292.00 670.00,324.00 670.00,324.00
             670.00,324.00 671.00,341.00 671.00,341.00
             671.00,341.00 671.00,437.00 671.00,437.00
             671.00,437.00 599.00,437.00 599.00,437.00
             599.00,437.00 599.00,218.00 599.00,218.00
             599.00,218.00 671.00,218.00 671.00,218.00
             671.00,218.00 671.00,241.00 671.00,241.00 Z
           M 1065.00,223.00
           C 1065.00,223.00 1135.00,223.00 1135.00,223.00
             1135.00,223.00 1135.00,267.00 1135.00,267.00
             1135.00,267.00 1134.00,284.00 1134.00,284.00
             1134.00,284.00 1134.00,436.00 1134.00,436.00
             1134.00,436.00 1065.00,436.00 1065.00,436.00
             1065.00,436.00 1065.00,223.00 1065.00,223.00 Z
           M 427.00,261.30
           C 389.42,268.40 379.30,314.29 390.00,346.00
             396.16,364.25 410.69,380.16 431.00,380.96
             451.80,381.78 468.46,366.78 475.31,348.00
             486.34,317.72 477.93,270.63 442.00,261.90
             437.20,260.73 431.89,260.81 427.00,261.30 Z
           M 1283.00,261.30
           C 1244.53,268.56 1235.28,316.03 1246.70,348.00
             1253.65,367.47 1272.31,383.80 1294.00,380.70
             1354.23,372.09 1348.89,254.75 1283.00,261.30 Z" />
</svg>
