<?xml version="1.0" encoding="UTF-8" standalone="no"?>
<!DOCTYPE svg PUBLIC "-//W3C//DTD SVG 20010904//EN"
              "http://www.w3.org/TR/2001/REC-SVG-20010904/DTD/svg10.dtd">

<svg xmlns="http://www.w3.org/2000/svg"
     width="21.6944in" height="4.34722in"
     viewBox="0 0 1562 313">
  <path id="Selection"
        fill="#cdaf57" stroke="black" stroke-width="1"
        d="M 0.00,1.00
           C 0.00,1.00 23.00,1.00 23.00,1.00
             23.00,1.00 23.00,173.00 23.00,173.00
             23.00,183.16 21.88,201.96 24.30,211.00
             25.53,215.61 25.84,219.95 30.21,222.99
             33.42,225.23 37.28,224.99 41.00,225.00
             41.00,225.00 133.00,225.00 133.00,225.00
             133.00,225.00 154.00,225.00 154.00,225.00
             155.95,225.04 158.63,224.90 159.98,226.60
             161.23,228.19 161.00,232.01 161.00,234.00
             161.00,234.00 161.00,246.00 161.00,246.00
             160.86,253.49 158.74,252.99 152.00,253.00
             152.00,253.00 64.00,253.00 64.00,253.00
             64.00,253.00 30.00,253.00 30.00,253.00
             17.39,252.92 11.56,247.73 2.00,241.00
             2.00,241.00 0.00,227.00 0.00,227.00
             0.00,227.00 0.00,148.00 0.00,148.00
             0.00,148.00 0.00,1.00 0.00,1.00 Z
           M 161.00,219.00
           C 161.00,219.00 61.00,219.00 61.00,219.00
             56.91,219.00 40.75,219.42 38.00,218.40
             34.21,217.00 31.03,212.75 29.77,209.00
             28.88,206.37 29.01,203.73 29.00,201.00
             29.00,201.00 29.00,50.00 29.00,50.00
             29.00,50.00 29.00,15.00 29.00,15.00
             29.00,12.05 28.20,4.04 30.57,2.17
             32.87,0.37 45.50,0.98 49.00,1.00
             52.45,1.02 53.64,1.05 56.99,2.00
             55.41,12.50 56.78,13.40 56.99,22.00
             56.99,22.00 56.00,38.00 56.00,38.00
             56.00,38.00 57.00,56.00 57.00,56.00
             57.00,56.00 57.00,151.00 57.00,151.00
             57.00,151.00 57.00,173.00 57.00,173.00
             56.99,177.13 56.25,185.53 58.02,189.00
             60.97,194.74 65.35,194.99 71.00,195.00
             71.00,195.00 161.00,195.00 161.00,195.00
             161.00,195.00 161.00,219.00 161.00,219.00 Z
           M 60.00,2.00
           C 60.00,2.00 87.00,1.00 87.00,1.00
             87.00,1.00 87.00,125.00 87.00,125.00
             87.00,125.00 87.00,151.00 87.00,151.00
             87.01,153.80 86.69,157.31 88.60,159.58
             91.59,163.14 97.78,162.99 102.00,163.00
             102.00,163.00 161.00,163.00 161.00,163.00
             161.00,163.00 161.00,189.00 161.00,189.00
             161.00,189.00 77.00,189.00 77.00,189.00
             63.50,188.97 61.02,182.28 61.00,170.00
             61.00,170.00 61.00,58.00 61.00,58.00
             61.00,58.00 61.00,23.00 61.00,23.00
             61.00,16.20 61.60,8.57 60.00,2.00 Z
           M 161.00,157.00
           C 161.00,157.00 107.00,157.00 107.00,157.00
             103.02,156.99 96.79,156.89 94.02,153.48
             91.80,150.75 92.99,143.68 93.03,140.00
             93.03,140.00 93.03,34.00 93.03,34.00
             93.03,34.00 93.03,14.00 93.03,14.00
             93.00,11.83 92.22,3.90 93.03,2.60
             94.46,0.62 98.86,1.00 101.00,1.00
             101.00,1.00 112.00,1.00 112.00,1.00
             119.49,1.14 118.99,3.26 119.00,10.00
             119.00,10.00 119.00,32.00 119.00,32.00
             119.00,32.00 118.00,48.00 118.00,48.00
             118.00,48.00 118.00,94.00 118.00,94.00
             118.00,94.00 119.00,111.00 119.00,111.00
             119.01,115.18 117.79,127.63 121.31,129.98
             123.20,131.23 130.25,131.16 132.83,131.12
             132.83,131.12 160.00,131.12 160.00,131.12
             160.00,131.12 161.00,157.00 161.00,157.00 Z
           M 261.00,38.00
           C 258.36,35.69 258.68,33.00 256.71,30.13
             253.43,25.33 248.28,25.03 243.00,25.00
             243.00,25.00 158.00,25.00 158.00,25.00
             158.00,25.00 132.00,25.00 132.00,25.00
             130.01,25.00 126.19,25.23 124.60,23.98
             122.62,22.41 123.00,18.30 123.00,16.00
             122.99,12.93 122.19,3.93 124.60,2.02
             126.19,0.77 130.01,1.00 132.00,1.00
             132.00,1.00 263.00,1.00 263.00,1.00
             274.53,1.02 283.28,7.33 285.92,19.00
             285.92,19.00 287.00,45.00 287.00,45.00
             287.00,45.00 287.00,86.00 287.00,86.00
             287.00,86.00 286.00,101.00 286.00,101.00
             286.00,101.00 286.00,123.00 286.00,123.00
             286.00,123.00 287.00,140.00 287.00,140.00
             287.00,140.00 287.00,218.00 287.00,218.00
             287.00,218.00 286.00,233.00 286.00,233.00
             285.96,236.42 286.93,247.98 284.40,249.98
             282.82,251.23 278.34,250.95 276.00,251.45
             272.47,252.21 263.78,255.13 261.60,250.69
             260.87,249.21 261.00,245.71 261.00,244.00
             261.00,244.00 261.00,106.00 261.00,106.00
             261.00,106.00 261.00,60.00 261.00,60.00
             261.00,60.00 261.00,38.00 261.00,38.00 Z
           M 483.00,251.00
           C 483.00,251.00 380.00,251.00 380.00,251.00
             375.29,250.92 366.81,248.22 364.31,243.89
             362.87,241.39 363.20,238.84 362.54,236.17
             361.12,230.47 361.01,232.54 361.00,226.00
             361.00,226.00 361.00,53.00 361.00,53.00
             361.00,53.00 361.00,8.00 361.00,8.00
             361.14,0.51 363.26,1.01 370.00,1.00
             370.00,1.00 387.00,1.00 387.00,1.00
             394.49,1.14 393.99,3.26 394.00,10.00
             394.00,10.00 394.00,170.00 394.00,170.00
             394.00,170.00 394.00,199.00 394.00,199.00
             394.07,204.99 395.03,211.48 400.13,215.44
             404.29,218.68 409.98,218.99 415.00,219.00
             415.00,219.00 483.00,219.00 483.00,219.00
             483.00,219.00 483.00,251.00 483.00,251.00 Z
           M 525.00,31.00
           C 525.00,31.00 500.00,31.00 500.00,31.00
             497.65,30.98 494.39,31.19 492.60,29.40
             490.68,27.48 491.01,23.54 491.00,21.00
             490.99,17.43 490.07,4.02 492.60,2.02
             494.19,0.77 498.01,1.00 500.00,1.00
             500.00,1.00 517.00,1.00 517.00,1.00
             518.82,1.01 521.92,0.85 523.40,2.02
             525.26,3.49 524.98,6.87 525.00,9.00
             525.00,9.00 525.00,31.00 525.00,31.00 Z
           M 1562.00,253.00
           C 1562.00,253.00 1539.00,253.00 1539.00,253.00
             1537.18,252.99 1534.08,253.15 1532.60,251.98
             1530.62,250.41 1531.00,246.30 1531.00,244.00
             1531.00,244.00 1531.00,67.00 1531.00,67.00
             1531.00,67.00 1531.00,10.00 1531.00,10.00
             1531.02,1.36 1531.36,1.02 1540.00,1.00
             1540.00,1.00 1562.00,1.00 1562.00,1.00
             1562.00,1.00 1562.00,253.00 1562.00,253.00 Z
           M 123.00,55.00
           C 123.00,55.00 123.00,37.00 123.00,37.00
             123.04,35.05 122.90,32.37 124.60,31.02
             126.19,29.77 130.01,30.00 132.00,30.00
             132.00,30.00 236.00,30.00 236.00,30.00
             249.29,30.16 254.97,35.61 255.00,49.00
             255.00,49.00 255.00,205.00 255.00,205.00
             255.00,205.00 255.00,246.00 255.00,246.00
             254.86,253.83 252.08,253.08 243.00,253.00
             239.20,252.96 231.47,252.70 229.60,248.70
             228.87,247.15 229.00,243.77 229.00,242.00
             229.00,242.00 229.00,99.00 229.00,99.00
             229.00,99.00 229.00,75.00 229.00,75.00
             229.00,71.47 229.40,66.11 227.83,63.00
             224.36,56.18 217.83,55.01 211.00,55.00
             211.00,55.00 123.00,55.00 123.00,55.00 Z
           M 1248.00,53.00
           C 1248.00,53.00 1268.00,55.13 1268.00,55.13
             1268.00,55.13 1285.01,59.00 1285.01,59.00
             1289.32,60.26 1294.74,63.27 1298.80,65.36
             1318.10,75.30 1323.80,83.54 1338.00,99.00
             1338.00,99.00 1338.00,95.00 1338.00,95.00
             1338.00,95.00 1360.23,73.84 1360.23,73.84
             1388.19,53.65 1424.79,48.17 1457.00,61.21
             1465.74,64.75 1473.55,68.82 1480.91,74.84
             1483.76,77.18 1491.20,85.21 1494.00,86.00
             1494.00,86.00 1502.89,98.00 1502.89,98.00
             1502.89,98.00 1511.48,113.01 1511.48,113.01
             1511.48,113.01 1518.63,136.00 1518.63,136.00
             1518.63,136.00 1520.42,157.42 1520.42,157.42
             1520.42,157.42 1519.12,164.00 1519.12,164.00
             1519.12,164.00 1518.55,172.00 1518.55,172.00
             1518.55,172.00 1514.34,185.00 1514.34,185.00
             1514.34,185.00 1512.22,192.58 1512.22,192.58
             1512.22,192.58 1500.00,215.00 1500.00,215.00
             1489.67,222.35 1488.72,229.58 1467.17,241.77
             1461.48,244.99 1459.02,247.65 1452.00,247.00
             1449.68,249.65 1445.35,250.28 1442.00,251.20
             1431.66,254.03 1420.65,253.02 1410.00,253.00
             1397.49,252.98 1376.59,244.75 1366.17,237.95
             1359.77,233.77 1358.47,232.00 1353.04,227.26
             1347.97,222.84 1339.73,215.50 1338.00,209.00
             1338.00,209.00 1336.00,209.00 1336.00,209.00
             1332.91,215.29 1330.27,217.79 1325.42,222.72
             1311.53,236.85 1299.72,243.76 1281.00,249.81
             1281.00,249.81 1269.00,252.79 1269.00,252.79
             1264.35,253.44 1262.12,251.96 1258.00,255.00
             1258.00,255.00 1237.00,252.68 1237.00,252.68
             1237.00,252.68 1227.00,249.71 1227.00,249.71
             1215.61,246.23 1211.08,245.65 1200.42,238.57
             1192.56,233.35 1184.72,227.60 1178.72,220.27
             1176.88,218.02 1172.98,212.04 1170.00,212.04
             1166.90,212.05 1163.71,217.77 1161.79,220.00
             1155.07,227.81 1150.47,231.28 1142.17,236.93
             1131.44,244.22 1115.85,250.64 1103.00,252.96
             1103.00,252.96 1094.00,252.96 1094.00,252.96
             1094.00,252.96 1082.00,255.00 1082.00,255.00
             1077.82,251.92 1075.66,253.51 1071.00,252.74
             1071.00,252.74 1062.00,250.56 1062.00,250.56
             1048.64,247.15 1040.26,243.17 1029.01,235.20
             1024.71,232.14 1024.80,233.21 1021.00,229.00
             1021.00,229.00 1021.00,313.00 1021.00,313.00
             1021.00,313.00 987.00,313.00 987.00,313.00
             987.00,313.00 987.00,153.00 987.00,153.00
             987.02,143.34 988.10,146.24 988.88,140.00
             989.53,134.71 990.18,129.17 991.61,124.00
             991.61,124.00 999.03,106.28 999.03,106.28
             999.03,106.28 1003.60,99.99 1003.60,99.99
             1003.60,99.99 1008.49,92.01 1008.49,92.01
             1010.91,88.73 1021.70,77.80 1025.04,75.17
             1051.48,54.29 1090.55,48.52 1122.00,60.27
             1132.61,64.23 1148.63,74.22 1156.70,82.08
             1162.10,87.34 1165.23,93.74 1171.00,98.00
             1179.71,82.57 1202.13,65.36 1219.00,59.90
             1219.00,59.90 1237.00,55.26 1237.00,55.26
             1241.66,54.49 1243.82,56.08 1248.00,53.00 Z
           M 796.00,253.00
           C 796.00,253.00 772.00,246.01 772.00,246.01
             754.47,239.45 732.91,222.23 723.53,206.00
             723.53,206.00 713.79,185.00 713.79,185.00
             712.35,180.32 709.63,163.67 709.81,159.00
             710.15,150.16 709.69,142.95 711.25,134.00
             714.48,115.52 726.61,94.98 740.01,82.04
             742.82,79.33 757.66,68.55 761.00,66.83
             761.00,66.83 769.00,63.46 769.00,63.46
             769.00,63.46 777.00,59.91 777.00,59.91
             780.72,58.68 800.37,55.05 804.00,55.00
             820.69,54.78 841.28,59.30 856.00,67.35
             869.16,74.54 882.98,87.46 891.13,100.00
             891.13,100.00 896.14,109.91 896.14,109.91
             901.14,118.42 906.95,137.14 907.00,147.00
             907.00,147.00 907.00,161.00 907.00,161.00
             907.00,161.00 751.00,161.00 751.00,161.00
             748.55,161.00 744.42,160.68 742.62,162.60
             740.03,165.34 743.98,175.91 745.51,178.99
             751.40,190.84 755.07,197.99 765.91,206.29
             769.49,209.03 771.37,211.53 776.00,212.00
             777.13,215.15 780.70,215.84 783.72,216.82
             792.29,219.61 795.82,220.78 804.83,221.10
             827.14,221.89 850.46,211.81 863.00,193.00
             865.86,188.70 870.70,181.13 871.00,176.00
             877.22,174.49 898.97,174.29 905.00,176.00
             899.72,191.83 893.10,207.36 881.87,220.00
             873.08,229.91 866.62,232.85 862.00,238.00
             862.00,238.00 860.00,237.00 860.00,237.00
             857.49,240.85 853.35,241.31 849.28,243.51
             841.61,247.68 820.71,252.96 812.00,253.00
             812.00,253.00 796.00,253.00 796.00,253.00 Z
           M 198.91,253.00
           C 198.91,253.00 198.91,127.00 198.91,127.00
             198.91,127.00 198.91,99.00 198.91,99.00
             198.33,96.49 196.89,91.46 194.69,90.02
             192.80,88.79 189.22,89.00 187.00,89.00
             187.00,89.00 133.00,89.00 133.00,89.00
             126.01,88.91 123.15,88.64 123.00,81.00
             123.00,81.00 123.00,68.00 123.00,68.00
             123.14,60.51 125.26,61.01 132.00,61.00
             132.00,61.00 207.00,61.00 207.00,61.00
             219.03,61.02 222.98,65.33 223.00,77.00
             223.00,77.00 223.00,253.00 223.00,253.00
             223.00,253.00 198.91,253.00 198.91,253.00 Z
           M 525.00,251.83
           C 525.00,251.83 518.00,251.83 518.00,251.83
             513.28,251.98 515.18,253.01 505.00,253.00
             501.16,253.00 494.48,253.07 492.02,249.50
             490.77,247.69 491.00,244.17 491.00,242.00
             491.00,242.00 491.00,105.00 491.00,105.00
             491.00,105.00 491.00,73.00 491.00,73.00
             491.01,70.46 490.68,66.52 492.60,64.60
             494.52,62.68 498.46,63.01 501.00,63.00
             501.00,63.00 515.00,63.00 515.00,63.00
             518.93,62.98 520.15,62.94 524.00,62.00
             524.00,62.00 525.00,85.00 525.00,85.00
             525.00,85.00 525.00,125.00 525.00,125.00
             525.00,125.00 525.00,251.83 525.00,251.83 Z
           M 605.00,250.00
           C 605.63,242.14 602.33,240.01 599.70,233.58
             599.70,233.58 597.90,228.00 597.90,228.00
             597.90,228.00 586.93,202.00 586.93,202.00
             586.93,202.00 582.33,189.00 582.33,189.00
             582.33,189.00 578.11,180.00 578.11,180.00
             578.11,180.00 574.74,170.17 574.74,170.17
             574.74,170.17 562.11,140.00 562.11,140.00
             562.11,140.00 549.55,107.00 549.55,107.00
             547.10,101.63 547.74,101.26 546.25,97.00
             546.25,97.00 542.11,88.00 542.11,88.00
             542.11,88.00 538.29,77.01 538.29,77.01
             537.07,73.94 533.37,68.66 534.69,65.31
             535.81,62.47 540.50,63.00 543.00,63.00
             550.54,62.98 562.02,63.70 569.00,62.00
             569.00,62.00 577.90,83.00 577.90,83.00
             577.90,83.00 580.12,90.00 580.12,90.00
             580.12,90.00 585.09,101.17 585.09,101.17
             585.09,101.17 596.00,126.00 596.00,126.00
             596.00,126.00 605.75,154.00 605.75,154.00
             605.75,154.00 614.29,175.00 614.29,175.00
             614.29,175.00 628.00,208.00 628.00,208.00
             628.00,208.00 637.00,182.00 637.00,182.00
             637.00,182.00 642.88,169.00 642.88,169.00
             642.88,169.00 647.88,158.00 647.88,158.00
             647.88,158.00 649.96,151.00 649.96,151.00
             649.96,151.00 660.71,126.00 660.71,126.00
             660.71,126.00 663.71,116.42 663.71,116.42
             663.71,116.42 667.88,108.00 667.88,108.00
             667.88,108.00 670.27,100.00 670.27,100.00
             670.27,100.00 674.98,90.00 674.98,90.00
             674.98,90.00 677.73,82.00 677.73,82.00
             677.73,82.00 681.94,72.00 681.94,72.00
             681.94,72.00 686.39,64.02 686.39,64.02
             686.39,64.02 694.00,63.00 694.00,63.00
             694.00,63.00 721.00,63.00 721.00,63.00
             720.85,75.56 714.49,77.29 715.00,86.00
             710.52,90.89 708.74,97.85 706.63,104.00
             706.63,104.00 702.07,114.42 702.07,114.42
             702.07,114.42 697.93,126.00 697.93,126.00
             697.93,126.00 683.60,162.91 683.60,162.91
             683.60,162.91 679.71,171.29 679.71,171.29
             679.71,171.29 676.74,180.72 676.74,180.72
             676.74,180.72 672.12,190.00 672.12,190.00
             672.12,190.00 669.73,198.00 669.73,198.00
             669.73,198.00 666.12,206.00 666.12,206.00
             666.12,206.00 659.50,223.00 659.50,223.00
             659.50,223.00 652.12,240.00 652.12,240.00
             650.70,243.57 650.43,247.73 647.53,250.57
             645.05,252.99 642.23,252.95 639.00,252.85
             639.00,252.85 610.09,252.85 610.09,252.85
             607.96,252.20 606.76,251.19 605.00,250.00 Z
           M 960.00,100.00
           C 952.50,102.15 951.01,110.27 951.00,117.00
             951.00,117.00 951.00,219.00 951.00,219.00
             951.00,219.00 951.00,244.00 951.00,244.00
             951.00,245.99 951.23,249.81 949.98,251.40
             948.41,253.38 944.30,253.00 942.00,253.00
             942.00,253.00 926.00,253.00 926.00,253.00
             924.05,252.96 921.37,253.10 920.02,251.40
             918.77,249.81 919.00,245.99 919.00,244.00
             919.00,244.00 919.00,105.00 919.00,105.00
             919.03,89.86 930.28,73.30 944.28,67.38
             949.99,64.96 963.57,64.01 970.00,64.00
             970.00,64.00 988.00,64.00 988.00,64.00
             989.95,64.04 992.63,63.90 993.98,65.60
             995.23,67.19 995.00,71.01 995.00,73.00
             995.00,73.00 995.00,90.00 995.00,90.00
             994.96,91.95 995.10,94.63 993.40,95.98
             991.81,97.23 987.99,97.00 986.00,97.00
             978.71,97.01 965.57,95.27 960.00,100.00 Z
           M 871.00,130.00
           C 869.20,123.70 866.28,118.82 862.44,113.59
             850.98,98.01 832.68,87.09 813.00,87.00
             813.00,87.00 802.00,87.00 802.00,87.00
             798.49,87.05 789.34,88.64 786.00,89.63
             779.33,91.61 765.12,100.41 760.13,105.20
             755.59,109.57 746.32,123.98 744.00,130.00
             744.00,130.00 775.00,131.00 775.00,131.00
             775.00,131.00 827.00,131.00 827.00,131.00
             827.00,131.00 854.00,131.00 854.00,131.00
             854.00,131.00 871.00,130.00 871.00,130.00 Z
           M 1082.00,87.17
           C 1076.02,88.61 1069.71,88.79 1064.00,90.89
             1046.69,97.24 1031.33,112.02 1024.11,129.00
             1019.90,138.92 1021.75,139.08 1020.79,146.00
             1020.79,146.00 1019.19,154.00 1019.19,154.00
             1019.19,154.00 1020.82,163.00 1020.82,163.00
             1021.25,166.61 1020.64,167.99 1021.71,172.00
             1026.43,189.70 1037.86,201.92 1053.25,211.11
             1053.25,211.11 1060.09,215.08 1060.09,215.08
             1060.09,215.08 1073.00,218.92 1073.00,218.92
             1078.47,220.28 1079.17,220.85 1085.01,220.98
             1092.86,221.14 1090.88,220.38 1096.99,219.24
             1102.93,218.14 1108.19,217.98 1114.00,215.45
             1137.48,205.19 1155.42,177.68 1155.00,152.00
             1154.90,146.35 1154.29,146.92 1153.21,142.00
             1148.44,120.17 1137.62,105.80 1118.00,95.21
             1113.24,92.64 1111.54,91.20 1106.00,89.71
             1106.00,89.71 1098.00,88.63 1098.00,88.63
             1093.84,87.84 1094.14,87.16 1089.00,87.17
             1089.00,87.17 1082.00,87.17 1082.00,87.17 Z
           M 1270.00,217.00
           C 1278.53,217.87 1285.27,213.10 1292.00,208.41
             1294.91,206.38 1299.42,203.29 1301.79,200.83
             1306.67,195.77 1316.85,179.71 1318.53,173.00
             1318.53,173.00 1319.26,166.00 1319.26,166.00
             1320.50,158.48 1321.12,161.37 1321.00,152.00
             1320.92,146.15 1320.29,146.87 1319.37,142.00
             1318.65,138.17 1319.40,137.64 1317.98,133.00
             1316.43,127.93 1315.66,127.35 1313.16,123.00
             1305.68,109.96 1298.48,102.28 1285.00,95.34
             1281.75,93.66 1279.54,92.20 1276.00,90.95
             1269.87,88.77 1269.36,89.57 1264.00,88.68
             1257.89,87.66 1258.25,86.78 1251.01,87.02
             1245.98,87.18 1246.55,88.08 1242.91,88.74
             1237.49,89.72 1237.53,87.92 1228.00,91.71
             1213.73,97.39 1199.60,111.26 1192.88,125.00
             1192.88,125.00 1189.96,132.99 1189.96,132.99
             1187.68,139.12 1185.20,145.34 1185.02,152.00
             1184.84,158.53 1187.95,175.90 1193.00,180.00
             1193.54,186.49 1198.56,193.22 1202.87,197.91
             1209.81,205.46 1220.03,213.37 1230.00,216.37
             1230.00,216.37 1243.00,219.58 1243.00,219.58
             1251.09,221.70 1254.95,221.48 1263.00,219.58
             1266.12,218.86 1267.76,219.50 1270.00,217.00 Z
           M 1436.00,217.00
           C 1443.56,217.77 1448.57,214.58 1455.00,211.07
             1469.77,203.02 1478.02,190.42 1483.51,175.00
             1485.95,168.15 1486.95,168.79 1487.00,161.00
             1487.00,161.00 1487.00,148.00 1487.00,148.00
             1486.92,142.20 1484.93,135.58 1482.86,130.17
             1476.21,112.85 1466.26,103.06 1450.00,94.45
             1447.26,93.00 1442.88,90.64 1440.00,89.75
             1440.00,89.75 1430.00,88.54 1430.00,88.54
             1424.29,87.54 1423.35,86.74 1417.00,87.04
             1412.45,87.25 1411.74,88.06 1408.00,88.68
             1408.00,88.68 1401.00,89.47 1401.00,89.47
             1398.62,90.07 1394.42,92.25 1392.00,93.37
             1372.03,102.65 1359.49,118.53 1354.79,140.00
             1353.71,144.91 1353.10,144.36 1353.00,150.00
             1352.61,174.01 1361.81,196.36 1383.00,209.25
             1389.49,213.20 1396.04,218.18 1404.00,217.00
             1408.20,221.71 1422.08,221.14 1428.00,220.00
             1431.18,219.39 1433.80,219.50 1436.00,217.00 Z
           M 167.00,120.00
           C 159.87,118.27 144.99,119.00 137.00,119.00
             134.17,119.00 126.66,119.47 124.57,117.83
             122.59,116.26 123.00,112.30 123.00,110.00
             122.97,95.03 121.73,93.16 130.00,93.00
             130.00,93.00 171.00,93.00 171.00,93.00
             181.40,93.02 178.23,95.00 191.00,95.00
             191.80,102.81 192.98,99.85 193.00,110.00
             193.00,110.00 193.00,216.00 193.00,216.00
             193.00,216.00 193.00,243.00 193.00,243.00
             192.99,245.54 193.32,249.48 191.40,251.40
             189.26,253.54 182.97,253.04 180.00,253.00
             173.54,252.91 172.83,251.60 167.00,251.00
             167.00,251.00 167.00,163.00 167.00,163.00
             167.00,163.00 167.00,120.00 167.00,120.00 Z
           M 724.00,204.00
           C 724.00,204.00 723.00,204.00 723.00,204.00
             723.00,204.00 724.00,205.00 724.00,205.00
             724.00,205.00 724.00,204.00 724.00,204.00 Z" />
</svg>
